<svg width="152" height="30" viewBox="0 0 152 30" fill="none" xmlns="http://www.w3.org/2000/svg">
<path d="M46.7621 28.5884V1.40676H55.5122C56.4221 0.855658 57.3876 0.286428 58.3289 0H45.3538V29.9952H62.2575C61.2521 29.6471 60.312 29.0912 59.4457 28.5884H46.7621Z" fill="#FAFAFB"/>
<path d="M76.8056 1.40676V8.13963C77.2714 8.26411 77.8425 8.3898 78.2139 8.50582V0H67.6356C68.8298 0.314225 70.0228 0.870161 71.1915 1.40676H76.8056Z" fill="#FAFAFB"/>
<path d="M73.5618 8.34146C71.7638 8.03086 70.001 7.87616 68.1147 7.88825C66.2502 7.88825 64.4838 8.1638 62.8141 8.71248C61.6453 9.09681 60.5794 9.58748 59.6151 10.1821C60.1886 10.6969 60.831 11.1236 61.4565 11.4849C62.151 10.8069 62.9931 10.2534 63.9829 9.82557C65.1783 9.3083 66.6398 9.04967 68.3652 9.04967C69.7009 9.04967 70.9036 9.21766 71.9756 9.55122C73.0463 9.88478 73.9925 10.3537 74.814 10.9568C74.9362 11.0462 75.0548 11.1393 75.1722 11.2347C75.9066 11.8463 76.4874 12.5472 76.935 13.2144C77.4226 13.9407 77.7541 14.6247 77.9562 15.1082C77.9562 15.1094 77.9574 15.1118 77.9586 15.113C78.0433 15.3366 78.1268 15.565 78.2127 15.7946C78.2151 15.7995 78.2151 15.8019 78.2151 15.8019V9.51255C77.8739 9.39894 77.425 9.26721 76.935 9.13306C75.7469 8.80917 74.3143 8.47077 73.5618 8.34025V8.34146Z" fill="#FAFAFB"/>
<path d="M77.9586 22.7704C77.9586 22.7704 77.9574 22.774 77.9562 22.7752C77.7529 23.2575 77.4226 23.9427 76.935 24.6691C76.4874 25.335 75.9066 26.0371 75.1722 26.6487C75.0548 26.7441 74.935 26.8372 74.814 26.9266C73.9925 27.5297 73.0463 27.9986 71.9756 28.3322C71.4166 28.5062 70.8213 28.6355 70.1909 28.7189C69.6126 28.7963 69.0052 28.8337 68.3652 28.8337C67.7251 28.8337 67.0742 28.7951 66.4886 28.7189C65.5533 28.5957 64.7185 28.3757 63.9841 28.0579C62.7875 27.5406 61.8062 26.8408 61.0415 25.9574C60.2757 25.0739 59.7191 24.0503 59.3719 22.8876C59.2593 22.5142 59.1662 22.1347 59.0912 21.7528C58.9823 21.1945 58.9109 20.6289 58.8758 20.062C58.8395 19.4783 58.8552 18.8897 58.8552 18.3048C58.8552 18.2009 58.8564 18.0969 58.8613 17.9918C58.9302 18.0196 58.9992 18.0486 59.0682 18.0764C59.3186 18.1791 59.5679 18.2843 59.8147 18.3918C60.0784 18.5066 60.3398 18.6251 60.5999 18.7471C61.7566 19.2934 62.8818 19.9569 63.753 20.8923C64.295 21.4748 64.7306 22.1758 64.9714 22.9312C65.2496 23.8098 65.1274 24.7621 64.6544 25.5537C64.4208 25.9441 64.1571 26.1471 63.338 26.6463C63.3247 26.6547 63.3114 26.6632 63.2968 26.6716L64.0688 27.4282C64.0688 27.4282 64.2623 27.3653 64.5503 27.2542C65.0306 27.0705 65.7735 26.7538 66.3168 26.3852C67.396 25.6504 68.4886 24.8854 69.1819 23.7808C69.8751 22.6761 70.249 21.3455 70.082 20.0524C69.8437 18.1839 68.5249 16.6068 66.9847 15.5203C65.4444 14.4338 63.6695 13.7401 61.9877 12.8905C61.8703 12.8312 61.7542 12.772 61.638 12.7104C61.3513 12.5605 61.0682 12.4022 60.7887 12.2366C60.0664 11.8076 59.3767 11.3205 58.7754 10.7501C58.5406 10.5289 58.3192 10.2933 58.1148 10.0443C57.9429 9.83644 57.7832 9.6189 57.6368 9.38928C56.6217 7.80244 56.3991 5.58716 57.5352 4.08371C58.5842 2.69629 60.4729 2.24187 62.2127 2.19957C63.7372 2.16332 65.3065 2.38327 66.6338 3.13379C67.9611 3.8843 69.0089 5.23305 69.1177 6.75221C69.7905 5.2826 70.4608 3.81058 71.1335 2.34097C70.2793 1.93006 69.3997 1.57475 68.5031 1.28228C65.3851 0.262257 62.0591 0.00241717 58.8794 0.867744C58.4826 0.975305 58.0809 1.1155 57.6804 1.28228C56.2878 1.86118 54.9182 2.76034 53.8861 3.75015C52.56 5.02518 51.6792 6.83922 51.8135 8.6726C51.9599 10.6679 53.2521 12.3901 54.8552 13.6301C55.0839 13.8078 55.3198 13.9745 55.5594 14.1317C55.5872 14.1498 55.6151 14.1679 55.6429 14.1848C56.7391 14.893 57.926 15.4393 59.119 15.9771C59.4178 16.1113 59.7167 16.2454 60.0155 16.382C60.583 16.6406 61.1468 16.9065 61.6985 17.1953C62.8322 17.79 63.9308 18.4958 64.762 19.4662C65.5945 20.4367 66.1426 21.7033 66.0385 22.9771C65.9925 23.5342 65.8098 24.0817 65.5122 24.5555C65.6404 24.2098 65.7167 23.8436 65.7312 23.4762C65.782 22.1988 65.1855 20.9564 64.3144 20.0197C63.4432 19.0831 62.318 18.422 61.1613 17.8733C60.7379 17.6727 60.3071 17.4854 59.8728 17.3053C59.5667 17.1772 59.2593 17.0527 58.9508 16.9283C57.6489 16.4025 56.3422 15.8877 55.1275 15.1903C55.0525 15.148 54.9786 15.1045 54.9048 15.0598C54.7028 14.939 54.5032 14.8109 54.3071 14.6743C52.5987 13.496 51.1735 11.7931 50.9424 9.75547C50.8069 8.56746 51.1009 7.36978 51.6732 6.31471C50.7439 7.55469 50.2079 9.10043 50.3822 10.6293C50.6205 12.7334 52.1341 14.4821 53.9163 15.6629C54.0579 15.7572 54.2007 15.8466 54.3459 15.9336C54.4293 15.9832 54.514 16.0327 54.5975 16.0811C54.652 16.1125 54.7064 16.1439 54.7609 16.1741C54.6677 16.4726 54.5915 16.776 54.531 17.0829C54.3144 18.1731 54.2902 19.3019 54.4596 20.4004C54.6193 21.435 54.9532 22.4369 55.4493 23.359C56.1861 24.7271 57.1807 25.9006 58.433 26.8807C59.3707 27.6143 60.4257 28.2283 61.5981 28.7213C61.9901 28.8869 62.3967 29.038 62.8153 29.1758C64.485 29.7257 66.2514 30 68.1159 30C68.1849 30 68.2539 30 68.3228 30C70.1317 30 71.8316 29.8453 73.563 29.5468C74.6265 29.3631 77.05 28.7636 78.2163 28.3745V22.0852C78.2163 22.0852 78.2163 22.0876 78.2139 22.0924C78.1994 22.1395 78.1195 22.3933 77.9598 22.774L77.9586 22.7704Z" fill="#FAFAFB"/>
<path d="M54.3398 18.8462C54.3398 18.8777 54.341 18.8777 54.3422 18.8462H54.3398Z" fill="#FAFAFB"/>
<path d="M59.8123 19.4541L59.799 19.4602C59.799 19.4602 59.8074 19.4638 59.8123 19.4662V19.4541Z" fill="#FAFAFB"/>
<path d="M90.918 12.7732C92.8878 12.772 95.1685 12.1097 95.621 10.0262C95.7432 9.33247 95.6875 8.52999 95.2883 7.95472C94.8636 7.41933 94.376 7.00842 93.725 6.74133C93.494 6.64827 93.2459 6.56851 93.0088 6.49237C92.2949 6.26757 91.6174 6.03795 90.8878 5.83249C89.7807 5.47839 88.3482 5.24272 88.5103 3.96769C88.7656 2.77847 90.2877 2.66245 91.2919 2.81956C92.0602 2.94284 92.7378 3.33682 93.1854 3.97494C93.2871 4.09701 93.3548 4.29521 93.5206 4.28796C93.8944 4.16227 94.6458 3.74532 95.0572 3.56041C95.1515 3.51327 95.2556 3.45526 95.2145 3.33682C93.8751 0.860492 90.1038 0.287636 87.8182 1.6388C87.3294 1.92886 86.8709 2.33372 86.5998 2.8389C85.9658 4.01845 86.2078 5.70197 87.454 6.43436C88.5163 7.09664 89.5436 7.29968 90.722 7.66467C91.3209 7.82782 91.8231 7.98131 92.2078 8.12875C92.7051 8.31366 93.2641 8.57834 93.4093 9.14394C93.5883 9.75789 93.1927 10.3791 92.6397 10.6389C92.0396 10.9459 91.0354 10.9918 90.278 10.9048C89.1177 10.761 88.301 10.2812 87.7819 9.36752C87.6924 9.2092 87.6113 9.011 87.4129 9.12219C87.0838 9.28172 86.2478 9.69746 85.9078 9.86786C85.6743 9.96455 85.7831 10.1579 85.8836 10.344C86.8503 12.1001 88.8914 12.7853 90.8975 12.7732H90.918Z" fill="#FAFAFB"/>
<path d="M104.276 12.5617C105.11 12.5617 105.736 12.5617 105.903 12.5617C105.925 12.5617 105.942 12.5593 105.951 12.5388C105.982 12.1871 105.959 11.277 105.963 10.9677C105.963 10.8637 105.961 10.8105 105.944 10.7888C105.934 10.7755 105.92 10.7707 105.897 10.7694C105.362 10.7477 100.446 10.8057 100.043 10.7489V10.7465C100.012 10.228 100.042 8.16743 100.032 7.77344C100.036 7.72993 100.034 7.69488 100.08 7.68884C101.24 7.68038 104.822 7.69005 105.298 7.68642C105.426 7.68763 105.378 7.56919 105.389 7.42416C105.375 7.07489 105.416 6.28087 105.369 5.9328C104.882 5.86513 100.504 5.9328 100.083 5.90622C100.02 5.90138 100.032 5.85062 100.03 5.64154C100.03 5.198 100.03 4.72183 100.03 4.1671C100.03 3.76707 100.03 3.39484 100.03 3.17971C100.042 3.02985 99.9876 2.93438 100.121 2.94042C100.79 2.93075 104.793 2.96096 105.839 2.92833C105.874 2.88845 105.863 2.81231 105.867 2.75551C105.856 2.37361 105.888 1.50465 105.856 1.17472C104.997 1.09254 98.457 1.17834 97.8799 1.14813C97.8339 1.14813 97.8291 1.14934 97.8303 1.20251C97.8388 4.12722 97.8109 11.9127 97.8448 12.5605C99.6609 12.5714 102.318 12.5605 104.274 12.5642L104.276 12.5617Z" fill="#FAFAFB"/>
<path d="M107.754 12.5303C107.763 12.5569 107.777 12.5605 107.8 12.5617C108.668 12.5569 111.484 12.5702 112.821 12.5617C114.381 12.5593 115.34 12.5642 116.502 12.5617C116.594 12.5593 116.602 12.5883 116.602 12.3623C116.595 11.8862 116.618 11.2517 116.591 10.8033C116.115 10.6981 110.935 10.8093 110.456 10.7622C111.882 8.7995 115.977 3.35616 116.447 2.69266C116.484 2.3591 116.452 1.72219 116.462 1.35479C116.462 1.29678 116.462 1.18076 116.445 1.16263C115.274 1.11671 109.574 1.15659 107.933 1.14571C107.916 1.14571 107.904 1.14934 107.896 1.16021C107.874 1.21218 107.88 1.27865 107.879 1.34512C107.879 1.65451 107.879 2.45941 107.879 2.7543C107.886 2.82923 107.856 2.94767 107.962 2.93921C109.397 2.93921 112.048 2.93921 113.519 2.93921C113.645 2.93921 113.714 2.93679 113.732 2.94284C113.742 2.94646 113.741 2.9525 113.732 2.96701C113.449 3.35012 108.173 10.4359 107.777 10.9689C107.769 10.9809 107.761 10.9918 107.756 11.0051C107.737 11.1248 107.744 11.3411 107.744 11.5248C107.753 11.9115 107.727 12.2729 107.755 12.5291L107.754 12.5303Z" fill="#FAFAFB"/>
<path d="M118.896 12.5581C120.712 12.569 123.369 12.5581 125.326 12.5617C126.161 12.5617 126.786 12.5617 126.953 12.5617C126.975 12.5617 126.992 12.5593 127.001 12.5388C127.032 12.1871 127.009 11.277 127.014 10.9677C127.014 10.8637 127.011 10.8105 126.994 10.7888C126.984 10.7755 126.97 10.7707 126.947 10.7694C126.412 10.7477 121.496 10.8057 121.093 10.7489V10.7465C121.062 10.228 121.092 8.16743 121.082 7.77344C121.086 7.72993 121.084 7.69488 121.13 7.68884C122.29 7.68038 125.873 7.69005 126.348 7.68642C126.476 7.68763 126.428 7.56919 126.439 7.42416C126.425 7.07489 126.467 6.28087 126.419 5.9328C125.932 5.86513 121.554 5.9328 121.133 5.90622C121.07 5.90138 121.082 5.85062 121.08 5.64154C121.08 5.198 121.08 4.72183 121.08 4.1671C121.08 3.76707 121.08 3.39484 121.08 3.17971C121.092 3.02985 121.038 2.93438 121.171 2.94042C121.84 2.93075 125.844 2.96096 126.889 2.92833C126.924 2.88845 126.913 2.81231 126.917 2.75551C126.906 2.37361 126.938 1.50465 126.906 1.17472C126.047 1.09254 119.507 1.17834 118.93 1.14813C118.884 1.14813 118.879 1.14934 118.88 1.20251C118.889 4.12722 118.861 11.9127 118.895 12.5605L118.896 12.5581Z" fill="#FAFAFB"/>
<path d="M134.26 8.47198C134.588 8.92036 136.793 12.2475 137.068 12.5497H137.073C137.478 12.5762 138.137 12.5557 138.615 12.5617C138.928 12.5617 139.2 12.5617 139.33 12.5617C139.401 12.5617 139.435 12.5581 139.441 12.5448C139.193 12.0868 136.832 8.81521 136.465 8.16017C136.545 8.04415 136.73 8.0224 136.945 7.90638C137.368 7.70213 137.741 7.43987 138.061 7.12082C138.688 6.51049 139.107 5.64396 139.078 4.76292C139.078 2.77605 137.174 1.30282 135.257 1.17351C134.579 1.12517 134.422 1.1578 133.474 1.14813C132.078 1.15175 130.457 1.14329 129.449 1.14813C129.401 1.15055 129.397 1.15538 129.396 1.19164C129.395 1.73065 129.397 10.1773 129.396 12.4832C129.399 12.5545 129.372 12.5617 129.557 12.5617C129.951 12.5605 130.899 12.5642 131.295 12.5617C131.421 12.5617 131.504 12.5629 131.547 12.5533C131.575 12.5472 131.588 12.5364 131.595 12.5146C131.615 11.9949 131.595 8.89619 131.605 8.4744C131.62 8.36684 131.704 8.41276 131.919 8.40189C131.986 8.40189 132.053 8.40189 132.124 8.40189C132.729 8.4043 133.587 8.39705 134.145 8.4043C134.21 8.40914 134.227 8.42485 134.261 8.47077L134.26 8.47198ZM131.9 6.7232C131.783 6.70991 131.605 6.76429 131.605 6.65915C131.616 6.33646 131.572 3.78157 131.621 2.92471L131.623 2.92229C131.829 2.88362 132.159 2.91987 132.695 2.90779C133.438 2.90779 134.341 2.90779 134.636 2.90779C135.03 2.90416 135.464 2.97305 135.814 3.16158C137.197 3.8698 137.219 5.72131 135.845 6.4549C135.299 6.76308 134.687 6.72562 134.075 6.72441C133.385 6.72441 132.375 6.72441 131.9 6.72441V6.7232Z" fill="#FAFAFB"/>
<path d="M98.3881 26.2221C98.0045 26.0408 97.2193 25.6468 96.8321 25.4776C96.6603 25.4087 96.5659 25.5864 96.4679 25.7012C96.2526 25.9731 95.9876 26.2172 95.6766 26.4263C93.9029 27.6119 91.0463 27.5128 89.3947 26.1423C87.6137 24.7694 87.5073 21.8592 89.1576 20.3654C90.9967 18.5707 94.8358 18.5574 96.4933 20.6325C96.6119 20.7884 96.7123 20.8984 96.9071 20.7872C97.2628 20.6119 98.1158 20.1974 98.4304 20.0367C98.7063 19.9086 98.3385 19.6185 98.1969 19.4263C97.7274 18.8994 97.1612 18.4655 96.4824 18.1066C93.0874 16.2962 87.9804 17.2812 86.2707 20.8379C85.7529 21.9015 85.6404 23.2744 85.9138 24.4358C86.6603 27.4536 89.7638 29.1202 92.7995 29.067H92.8176C94.9289 29.0755 97.0959 28.2585 98.3869 26.6293C98.451 26.5472 98.5647 26.4058 98.5248 26.3308C98.5018 26.2813 98.4425 26.2499 98.3869 26.2208L98.3881 26.2221Z" fill="#FAFAFB"/>
<path d="M108.903 27.2614C108.903 27.1575 108.901 27.1043 108.884 27.0825C108.874 27.0693 108.86 27.0644 108.837 27.0632C108.302 27.0415 103.386 27.0995 102.983 27.0427V27.0402C102.952 26.5218 102.982 24.4612 102.972 24.0672C102.976 24.0237 102.974 23.9886 103.02 23.9826C104.18 23.9741 107.763 23.9838 108.238 23.9802C108.366 23.9814 108.318 23.8629 108.329 23.7179C108.315 23.3687 108.357 22.5746 108.309 22.2266C107.822 22.1589 103.444 22.2266 103.023 22.2C102.96 22.1951 102.972 22.1444 102.97 21.9353C102.97 21.4918 102.97 21.0156 102.97 20.4609C102.97 20.0608 102.97 19.6886 102.97 19.4735C102.982 19.3236 102.928 19.2281 103.061 19.2342C103.73 19.2245 107.733 19.2547 108.779 19.2221C108.814 19.1822 108.803 19.1061 108.807 19.0493C108.796 18.6674 108.828 17.7984 108.796 17.4685C107.937 17.3863 101.397 17.4721 100.82 17.4419C100.774 17.4419 100.769 17.4431 100.77 17.4963C100.779 20.421 100.751 28.2065 100.785 28.8543C102.601 28.8652 105.258 28.8543 107.214 28.8579C108.049 28.8579 108.675 28.8579 108.842 28.8579C108.864 28.8579 108.88 28.8555 108.89 28.835C108.92 28.4833 108.897 27.5732 108.902 27.2638L108.903 27.2614Z" fill="#FAFAFB"/>
<path d="M118.832 24.1989C119.256 23.9947 119.628 23.7324 119.949 23.4134C120.576 22.803 120.994 21.9365 120.965 21.0555C120.965 19.0686 119.062 17.5954 117.144 17.4661C116.467 17.4177 116.309 17.4503 115.362 17.4407C113.966 17.4443 112.344 17.4358 111.337 17.4407C111.288 17.4431 111.285 17.4479 111.283 17.4842C111.282 18.0232 111.285 26.4698 111.283 28.7757C111.287 28.847 111.259 28.8543 111.444 28.8543C111.839 28.8531 112.786 28.8567 113.183 28.8543C113.309 28.8543 113.391 28.8555 113.435 28.8458C113.462 28.8398 113.476 28.8289 113.483 28.8072C113.502 28.2875 113.483 25.1887 113.493 24.7669C113.507 24.6594 113.592 24.7053 113.806 24.6944C113.874 24.6944 113.94 24.6944 114.012 24.6944C114.617 24.6969 115.475 24.6896 116.032 24.6969C116.098 24.7017 116.115 24.7174 116.148 24.7633C116.476 25.2117 118.682 28.5389 118.957 28.841H118.961C119.367 28.8676 120.026 28.847 120.504 28.8531C120.816 28.8531 121.089 28.8531 121.219 28.8531C121.289 28.8531 121.323 28.8495 121.329 28.8362C121.081 28.3781 118.721 25.1066 118.354 24.4515C118.434 24.3355 118.619 24.3137 118.833 24.1977L118.832 24.1989ZM117.733 22.7487C117.188 23.0568 116.576 23.0194 115.963 23.0182C115.274 23.0182 114.263 23.0182 113.789 23.0182C113.672 23.0049 113.494 23.0593 113.494 22.9541C113.505 22.6314 113.461 20.0765 113.51 19.2197L113.512 19.2173C113.718 19.1786 114.048 19.2148 114.584 19.2028C115.327 19.2028 116.23 19.2028 116.525 19.2028C116.919 19.1991 117.352 19.268 117.703 19.4566C119.086 20.1648 119.108 22.0163 117.733 22.7499V22.7487Z" fill="#FAFAFB"/>
<path d="M131.81 17.9604C131.807 17.8673 131.813 17.6546 131.81 17.5772C131.81 17.5337 131.806 17.5023 131.802 17.483V17.4781C131.222 17.3778 122.874 17.46 122.078 17.4479C122.05 17.4479 122.052 17.5978 122.05 17.6643C122.05 17.9833 122.048 18.7737 122.05 19.0505C122.05 19.1 122.056 19.1544 122.071 19.1907C122.098 19.2366 122.145 19.2306 122.198 19.2342C122.749 19.2354 124.808 19.2342 125.648 19.2342C125.877 19.2342 125.831 19.233 125.837 19.372C125.837 21.1401 125.837 28.0724 125.837 28.7975C125.827 28.8954 126.078 28.8434 126.24 28.8567C126.793 28.8422 127.591 28.8845 128.015 28.8422C128.078 28.3975 128.017 24.402 128.037 21.6658V19.43C128.042 19.2547 128 19.2281 128.187 19.2354C128.723 19.2354 131.184 19.2354 131.675 19.2354C131.729 19.233 131.773 19.2318 131.791 19.1762C131.829 18.8426 131.798 18.3628 131.807 17.9628L131.81 17.9604Z" fill="#FAFAFB"/>
<path d="M141.951 27.2614C141.951 27.1575 141.949 27.1043 141.932 27.0825C141.922 27.0693 141.908 27.0644 141.885 27.0632C141.35 27.0415 136.434 27.0995 136.031 27.0427V27.0402C136 26.5218 136.03 24.4612 136.02 24.0672C136.024 24.0237 136.021 23.9886 136.067 23.9826C137.228 23.9741 140.81 23.9838 141.286 23.9802C141.414 23.9814 141.366 23.8629 141.376 23.7179C141.363 23.3687 141.404 22.5746 141.357 22.2266C140.869 22.1589 136.492 22.2266 136.071 22.2C136.008 22.1951 136.02 22.1444 136.018 21.9353C136.018 21.4918 136.018 21.0156 136.018 20.4609C136.018 20.0608 136.018 19.6886 136.018 19.4735C136.03 19.3236 135.975 19.2281 136.108 19.2342C136.778 19.2245 140.781 19.2547 141.827 19.2221C141.862 19.1822 141.851 19.1061 141.854 19.0493C141.843 18.6674 141.876 17.7984 141.843 17.4685C140.984 17.3863 134.445 17.4721 133.868 17.4419C133.822 17.4419 133.817 17.4431 133.818 17.4963C133.827 20.421 133.799 28.2065 133.833 28.8543C135.649 28.8652 138.306 28.8543 140.262 28.8579C141.097 28.8579 141.722 28.8579 141.889 28.8579C141.911 28.8579 141.928 28.8555 141.938 28.835C141.968 28.4833 141.945 27.5732 141.95 27.2638L141.951 27.2614Z" fill="#FAFAFB"/>
<path d="M151.998 28.65C152 28.2343 151.998 27.7352 151.998 27.3303C151.998 27.1829 151.997 27.1103 151.972 27.0838C151.39 27.0185 147.039 27.0958 146.56 27.0547H146.559C146.499 25.167 146.598 17.8129 146.525 17.454C146.107 17.4153 145.37 17.454 144.805 17.4407H144.727C144.517 17.4407 144.407 17.4383 144.371 17.4503C144.295 18.1912 144.369 25.8341 144.344 28.7757C144.348 28.835 144.332 28.8543 144.388 28.8555C144.907 28.8555 149.92 28.8579 151.805 28.8555C151.956 28.8422 152.006 28.9232 152 28.6488L151.998 28.65Z" fill="#FAFAFB"/>
<path d="M39.8305 11.1646H38.6206V18.8317H39.8305V11.1646Z" fill="#FAFAFB"/>
<path d="M0 29.8671H33.0973V0.128107H0V29.8671ZM23.8293 5.47718H24.6351V6.09354C24.8009 5.88084 25.0211 5.70922 25.2957 5.57991C25.5716 5.45059 25.885 5.38533 26.2358 5.38533C26.6279 5.38533 26.9485 5.4518 27.1989 5.58595C27.4482 5.7201 27.626 5.90622 27.7289 6.14672C28.1487 5.63913 28.6956 5.38533 29.3695 5.38533C29.8959 5.38533 30.3012 5.50498 30.5855 5.74427C30.8686 5.98356 31.0102 6.35217 31.0102 6.84889V9.83765H30.1124V7.09423C30.1124 6.79934 30.0834 6.58663 30.0241 6.45732C29.966 6.328 29.8596 6.22286 29.7071 6.14309C29.5534 6.06454 29.3744 6.02465 29.1663 6.02465C28.7936 6.02465 28.4839 6.12617 28.2371 6.33042C27.9914 6.53346 27.8668 6.85977 27.8668 7.30814V9.83765H26.9691V7.00842C26.9691 6.6809 26.8965 6.43436 26.7501 6.2712C26.6049 6.10684 26.3653 6.02465 26.0338 6.02465C25.7809 6.02465 25.5486 6.08025 25.3345 6.18902C25.1203 6.29779 24.9654 6.45853 24.8686 6.66882C24.7731 6.8791 24.7247 7.18245 24.7247 7.57886V9.83886H23.8269V5.4796L23.8293 5.47718ZM3.13006 9.92467H10.398L13.1022 19.9774L15.862 9.92467H23.13V26.7417H18.5855V14.244L15.2183 26.7417H11.0417L7.67451 14.4277V26.7417H3.13006V9.92467Z" fill="#FAFAFB"/>
</svg>
